<?xml version="1.0" encoding="utf-8"?>
<!-- Generator: Adobe Illustrator 26.0.3, SVG Export Plug-In . SVG Version: 6.00 Build 0)  -->
<svg version="1.1" id="Layer_1" xmlns="http://www.w3.org/2000/svg" xmlns:xlink="http://www.w3.org/1999/xlink" x="0px" y="0px"
	 viewBox="0 0 576 396" style="enable-background:new 0 0 576 396;" xml:space="preserve">
<style type="text/css">
	.st0{enable-background:new    ;}
	.st1{fill:#F1F2F2;}
	.st2{fill:none;stroke:#F1F2F2;stroke-miterlimit:10;}
	.st3{fill:none;stroke:#FFFFFF;stroke-width:3;stroke-miterlimit:10;}
</style>
<g id="Layer_1_00000096767786994006042960000012200529661416870539_">
	<g class="st0">
		<path class="st1" d="M212.9,205.7h-41.3v-30.8h16.2v23.5h25.2V205.7z"/>
		<path class="st1" d="M265.4,205.7h-16.5l-2.6-4.7h-19.8l-2.6,4.7h-10.5l17-30.8h18L265.4,205.7z M242.3,193.9l-5.9-10.8l-6,10.8
			H242.3z"/>
		<path class="st1" d="M314.2,205.7h-15.8l-7.5-9.8h-6.8v9.8H268v-30.8h36.6c3,0,5.4,1,7.2,3c1.8,2,2.8,4.5,2.8,7.5
			c0,2.5-0.8,4.7-2.3,6.5c-1.5,1.8-3.5,3.1-5.8,3.7L314.2,205.7z M294.8,188.6c1,0,1.8-0.3,2.5-0.9s1-1.4,1-2.4c0-2-1.1-3-3.2-3.2
			h-11.1v6.4H294.8z"/>
		<path class="st1" d="M340.6,206.8c-2.8,0-5.6-0.1-8.4-0.4c-2.8-0.2-5.2-0.7-7.5-1.4s-4-1.8-5.3-3.2c-1.3-1.4-2-3.3-2-5.7h16.2
			c0,1.1,0.3,1.9,0.9,2.5s1.4,0.9,2.4,1.1c1,0.2,2.2,0.3,3.6,0.3h1.6c1.5,0,2.7-0.1,3.7-0.4c1.1-0.2,1.7-0.9,1.7-2
			c0-0.9-0.9-1.5-2.6-1.9c-1.7-0.4-3.8-0.7-6.3-1c-3-0.4-6.1-0.9-9.2-1.6s-5.8-1.7-8-3.1c-2.3-1.5-3.5-3.6-3.5-6.3
			c0-2.2,0.6-3.9,1.8-5.3c1.2-1.3,2.9-2.4,5.1-3c2.2-0.7,4.7-1.1,7.4-1.3c2.8-0.2,5.6-0.2,8.4-0.2c2.9,0,5.7,0.1,8.4,0.3
			c2.7,0.2,5.2,0.7,7.3,1.4c2.2,0.7,3.9,1.8,5.2,3.2c1.3,1.4,1.9,3.3,1.9,5.7h-15.8c0-1.1-0.3-1.9-0.8-2.5c-0.6-0.5-1.4-0.9-2.4-1.1
			c-1.1-0.2-2.8-0.3-5.1-0.3c-1.4,0-2.6,0.1-3.6,0.4c-1,0.2-1.5,0.9-1.5,1.9v0.4c0.1,0.7,1,1.3,2.7,1.7c1.7,0.4,3.8,0.8,6.3,1.1
			c3,0.4,6,1,9.1,1.7c3.1,0.7,5.8,1.8,8,3.1c2.3,1.5,3.5,3.5,3.5,6.1c0,2.3-0.6,4.2-1.9,5.5c-1.3,1.3-3,2.3-5.2,2.9
			c-2.2,0.6-4.7,1-7.5,1.1C346.3,206.8,343.4,206.8,340.6,206.8z"/>
		<path class="st1" d="M396.4,205.7h-16.2v-23.5h-14.5v-7.4h45.1v7.4h-14.4V205.7z"/>
	</g>
	<g class="st0">
		<path class="st2" d="M184.9,230.5h-12.4v-9h12.4V230.5z"/>
		<path class="st2" d="M237,231.7c-7.3,0-13-1.2-17.2-3.6c-4.8-2.7-7.2-7.1-7.2-13c0-5.9,2.4-10.2,7.2-12.9
			c4.2-2.4,9.9-3.6,17.2-3.6c7.2,0,13,1.2,17.2,3.6c4.8,2.7,7.3,7,7.3,12.9c0,5.9-2.4,10.3-7.3,13C250,230.5,244.3,231.7,237,231.7z
			 M237,224c2.8,0,4.9-0.7,6.3-2.2c1.3-1.4,2-3.7,2-6.7s-0.7-5.3-2-6.7c-1.3-1.4-3.4-2.2-6.3-2.2c-2.8,0-4.9,0.7-6.3,2.2
			c-1.3,1.4-2,3.7-2,6.7s0.7,5.3,2,6.7C232.1,223.2,234.2,224,237,224z"/>
		<path class="st2" d="M336.8,230.5h-18.8l-18.4-20.7v20.7h-9.4v-30.8h18.8l18.4,20.7v-20.7h9.4V230.5z"/>
		<path class="st2" d="M408.4,230.5h-41.3v-30.8h41.3v7h-25.2v5h22.5l-1.1,6.6h-21.4v4.6h25.2V230.5z"/>
	</g>
	<polyline class="st3" points="165.8,181.9 165.8,168.4 182,168.4 	"/>
	<polyline class="st3" points="415.3,223.5 415.3,237 399.1,237 	"/>
</g>
</svg>
